<svg width="1188.914" height="239.706" viewBox="0 0 1188.914 239.706" xmlns="http://www.w3.org/2000/svg"><g id="svgGroup" stroke-linecap="round" fill-rule="nonzero" font-size="9pt" stroke="#000" stroke-width="0.25mm" fill="none" style="stroke:#000;stroke-width:0.25mm;fill:none"><path d="M 44.401 119.403 L 45.601 119.403 Q 65.101 93.003 82.051 77.103 A 175.538 175.538 0 0 1 101.107 61.373 A 99.313 99.313 0 0 1 113.251 54.003 A 67.94 67.94 0 0 1 131.733 47.438 A 39.285 39.285 0 0 1 138.601 46.803 Q 147.301 46.803 151.501 52.203 Q 155.701 57.603 155.701 65.403 A 27.54 27.54 0 0 1 150.148 80.804 Q 145.955 86.927 138.595 93.516 A 132.461 132.461 0 0 1 131.251 99.603 Q 106.801 118.503 60.901 138.303 L 61.201 133.503 Q 89.701 148.203 110.251 164.253 A 226.126 226.126 0 0 1 130.332 181.74 A 128.807 128.807 0 0 1 141.751 194.553 A 68.399 68.399 0 0 1 150.214 208.197 A 25.594 25.594 0 0 1 152.701 218.403 Q 152.701 226.203 147.751 231.153 Q 142.801 236.103 133.501 236.103 A 43.629 43.629 0 0 1 114.516 231.125 A 78.211 78.211 0 0 1 107.551 227.253 Q 93.301 218.403 78.001 200.703 A 240.013 240.013 0 0 1 59.832 176.512 A 361.492 361.492 0 0 1 47.401 156.303 L 46.201 156.303 Q 45.901 175.203 43.951 193.053 A 260.558 260.558 0 0 1 41.103 212.846 A 137.406 137.406 0 0 1 39.001 222.303 Q 36.901 230.103 32.551 234.753 Q 28.201 239.403 20.401 239.403 Q 14.701 239.403 11.101 235.953 Q 7.501 232.503 6.001 225.903 Q 3.601 214.803 1.801 193.803 Q 0.001 172.803 0.001 147.303 Q 0.001 115.803 2.251 86.703 Q 4.501 57.603 8.101 39.003 A 146.863 146.863 0 0 1 12.601 21.107 A 58.033 58.033 0 0 1 17.701 9.453 Q 23.401 0.003 32.701 0.003 Q 41.101 0.003 45.601 7.653 A 32.246 32.246 0 0 1 49.112 18.872 A 98.68 98.68 0 0 1 50.101 33.903 A 630.906 630.906 0 0 1 48.793 73.138 A 771.959 771.959 0 0 1 48.751 73.803 A 752.506 752.506 0 0 1 45.125 113.375 A 921.289 921.289 0 0 1 44.401 119.403 Z M 1086.001 147.303 L 1086.001 146.103 A 230.608 230.608 0 0 1 1058.62 132.436 Q 1045.754 124.803 1036.624 116.45 A 90.251 90.251 0 0 1 1030.051 109.803 A 89.719 89.719 0 0 1 1017.577 92.338 A 41.822 41.822 0 0 1 1012.201 72.903 Q 1012.201 66.003 1015.351 61.203 Q 1018.501 56.403 1023.751 53.703 Q 1029.001 51.003 1034.701 51.003 Q 1047.001 51.003 1058.551 60.153 A 94.15 94.15 0 0 1 1074.219 76.421 A 152.44 152.44 0 0 1 1081.201 86.253 A 254.693 254.693 0 0 1 1096.18 112.75 A 367.188 367.188 0 0 1 1102.801 126.903 L 1104.001 126.903 A 326.646 326.646 0 0 1 1115.172 100.249 Q 1125.284 79.065 1135.951 67.053 A 64.153 64.153 0 0 1 1152.668 53.138 A 36.817 36.817 0 0 1 1170.601 48.303 Q 1179.301 48.303 1184.101 53.853 Q 1188.901 59.403 1188.901 67.803 A 52.135 52.135 0 0 1 1178.979 97.445 A 84.307 84.307 0 0 1 1171.801 106.503 Q 1156.404 123.521 1126.658 138.836 A 293.849 293.849 0 0 1 1119.901 142.203 L 1119.901 143.703 Q 1149.462 160.003 1165.157 177.448 A 94.991 94.991 0 0 1 1167.751 180.453 A 90.379 90.379 0 0 1 1178.79 196.763 A 38.183 38.183 0 0 1 1183.501 213.903 A 29.869 29.869 0 0 1 1183.485 214.877 A 19.401 19.401 0 0 1 1178.251 228.303 Q 1173.001 233.703 1165.801 233.703 Q 1153.201 233.703 1142.401 224.403 Q 1131.601 215.103 1122.151 198.453 A 277.014 277.014 0 0 1 1107.488 168.129 A 367.927 367.927 0 0 1 1104.301 160.203 L 1103.101 160.203 A 307.305 307.305 0 0 1 1090.466 187.66 A 186.629 186.629 0 0 1 1080.151 205.053 A 119.983 119.983 0 0 1 1065.653 222.989 A 67.864 67.864 0 0 1 1056.301 230.853 A 43.019 43.019 0 0 1 1034.797 239.031 A 33.369 33.369 0 0 1 1032.601 239.103 Q 1024.201 239.103 1018.201 232.953 Q 1012.201 226.803 1012.201 217.503 A 37.669 37.669 0 0 1 1017.511 199.438 A 68.141 68.141 0 0 1 1020.901 193.953 A 94.939 94.939 0 0 1 1037.514 175.858 A 148.613 148.613 0 0 1 1046.251 168.903 A 169.798 169.798 0 0 1 1077.223 151.051 A 225.62 225.62 0 0 1 1086.001 147.303 Z M 934.201 136.503 L 932.701 132.903 A 116.826 116.826 0 0 1 956.853 137.318 Q 969.599 141.235 977.824 148.166 A 43.743 43.743 0 0 1 978.901 149.103 Q 993.901 162.603 993.901 184.203 Q 993.901 199.803 985.351 212.403 A 55.578 55.578 0 0 1 962.955 230.929 A 80.205 80.205 0 0 1 959.851 232.353 A 89.139 89.139 0 0 1 935.206 238.67 A 149.083 149.083 0 0 1 917.101 239.703 Q 894.001 239.703 880.651 236.103 Q 867.301 232.503 861.901 226.353 Q 856.501 220.203 856.501 212.703 Q 856.501 205.203 860.851 200.253 Q 865.201 195.303 873.601 195.303 Q 883.201 195.303 893.401 198.003 Q 903.601 200.703 915.301 200.703 A 50.931 50.931 0 0 0 932.18 198.256 A 26.7 26.7 0 0 0 938.401 195.153 Q 946.501 189.603 946.501 181.203 Q 946.501 175.203 943.501 170.853 A 22.595 22.595 0 0 0 934.462 163.986 A 49.664 49.664 0 0 0 932.401 163.053 A 95.55 95.55 0 0 0 919.744 158.904 A 225.593 225.593 0 0 0 908.701 156.303 Q 894.901 153.603 887.851 149.853 Q 880.801 146.103 880.801 138.303 Q 880.801 129.603 888.601 124.503 A 79.998 79.998 0 0 1 902.304 117.633 A 158.48 158.48 0 0 1 910.501 114.603 Q 930.001 107.703 938.551 101.403 Q 947.101 95.103 947.101 86.103 Q 947.101 77.103 939.751 72.603 A 33.602 33.602 0 0 0 925.477 68.421 A 70.03 70.03 0 0 0 918.601 68.103 Q 907.501 68.103 897.001 70.803 Q 886.501 73.503 874.501 73.503 A 18.608 18.608 0 0 1 862.35 70.029 A 11.645 11.645 0 0 1 862.201 69.903 Q 858.001 66.303 858.001 59.703 A 20.674 20.674 0 0 1 866.166 44.114 A 38.121 38.121 0 0 1 866.701 43.653 A 57.245 57.245 0 0 1 883.632 34.231 A 98.944 98.944 0 0 1 891.001 31.803 A 121.884 121.884 0 0 1 919.367 27.468 A 172.864 172.864 0 0 1 927.001 27.303 A 97.772 97.772 0 0 1 956.197 31.361 A 74.067 74.067 0 0 1 960.901 33.003 Q 975.601 38.703 984.151 50.103 A 45.406 45.406 0 0 1 992.649 76.221 A 68.04 68.04 0 0 1 992.701 78.903 Q 992.701 98.703 978.451 114.153 A 65.674 65.674 0 0 1 956.892 129.077 A 120.744 120.744 0 0 1 934.201 136.503 Z M 718.801 95.703 L 718.201 89.703 Q 725.401 70.203 740.401 59.253 Q 755.401 48.303 772.201 48.303 Q 790.801 48.303 803.251 58.803 A 60.169 60.169 0 0 1 820.215 83.61 A 86.943 86.943 0 0 1 821.851 88.203 A 128.114 128.114 0 0 1 827.4 117.452 A 190.875 190.875 0 0 1 828.001 132.903 Q 828.001 148.803 826.651 164.253 Q 825.301 179.703 823.051 192.453 Q 820.801 205.203 818.101 213.303 A 37.753 37.753 0 0 1 810.278 227.046 A 22.487 22.487 0 0 1 808.801 228.453 Q 803.101 233.403 795.301 233.403 Q 787.501 233.403 783.301 227.703 Q 779.101 222.003 779.101 212.403 A 216.251 216.251 0 0 1 779.945 194.656 A 363.78 363.78 0 0 1 780.601 187.653 Q 782.101 173.103 783.451 157.953 Q 784.801 142.803 784.801 130.503 A 85.554 85.554 0 0 0 782.966 111.639 Q 777.685 88.503 757.201 88.503 Q 742.501 88.503 732.601 101.553 A 62.129 62.129 0 0 0 722.986 121.524 A 114.566 114.566 0 0 0 719.401 138.603 Q 718.501 146.703 718.501 158.703 Q 718.501 170.703 718.651 182.553 A 261.551 261.551 0 0 1 718.672 185.862 Q 718.672 195.56 717.901 202.503 A 81.473 81.473 0 0 1 715.398 218.75 A 30.672 30.672 0 0 1 711.151 228.303 Q 705.601 236.103 696.001 236.103 Q 684.901 236.103 679.201 225.753 Q 674.069 216.434 673.557 195.563 A 194.49 194.49 0 0 1 673.501 190.803 Q 673.501 178.203 674.101 162.603 Q 674.701 147.003 675.751 131.253 A 594.36 594.36 0 0 1 678.208 103.412 A 438.886 438.886 0 0 1 678.301 102.603 A 220.236 220.236 0 0 1 682.25 79.621 A 109.06 109.06 0 0 1 687.001 64.053 A 24.684 24.684 0 0 1 695.321 52.458 A 15.119 15.119 0 0 1 704.101 49.803 Q 713.701 49.803 717.151 57.603 A 42.677 42.677 0 0 1 720.116 70.283 A 101.768 101.768 0 0 1 720.601 80.703 Q 720.601 84.303 720.151 88.353 Q 719.701 92.403 718.801 95.703 Z M 295.201 195.903 L 296.701 194.703 Q 293.701 207.603 285.001 216.903 Q 276.301 226.203 264.901 231.153 Q 253.501 236.103 242.101 236.103 Q 226.801 236.103 214.201 228.903 Q 201.601 221.703 194.701 206.703 A 139.176 139.176 0 0 1 187.326 183.934 A 232.745 232.745 0 0 1 183.901 166.653 Q 180.001 142.503 180.001 117.003 Q 180.001 103.203 181.201 91.503 A 91.545 91.545 0 0 1 184.217 75.005 A 50.083 50.083 0 0 1 185.101 72.303 Q 187.501 64.503 192.301 60.753 Q 197.101 57.003 204.601 57.003 Q 213.301 57.003 218.251 63.753 A 34.509 34.509 0 0 1 223.934 78.881 A 62.209 62.209 0 0 1 224.401 82.503 Q 225.601 92.403 226.051 106.953 L 226.951 136.053 Q 227.401 150.603 228.301 160.503 A 64.102 64.102 0 0 0 232.287 178.157 A 31.128 31.128 0 0 0 237.601 187.053 Q 245.101 195.603 255.901 195.603 Q 271.801 195.603 280.201 183.603 A 47.011 47.011 0 0 0 287.608 163.719 A 88.216 88.216 0 0 0 288.601 150.003 A 275.972 275.972 0 0 0 287.546 127.248 A 389.088 389.088 0 0 0 287.401 125.553 Q 286.201 111.903 284.851 99.003 Q 283.501 86.103 283.501 77.703 A 48.365 48.365 0 0 1 285.238 63.616 A 19.129 19.129 0 0 1 288.301 57.453 Q 293.101 51.303 301.501 51.303 Q 308.701 51.303 313.651 55.203 Q 318.601 59.103 321.601 66.003 Q 325.801 75.003 328.801 90.603 A 340.928 340.928 0 0 1 332.884 118.726 A 473.471 473.471 0 0 1 333.601 126.003 Q 335.401 145.803 335.401 167.703 A 371.94 371.94 0 0 1 334.768 190.52 Q 333.713 207.547 330.901 217.953 A 29.866 29.866 0 0 1 325.166 229.904 A 12.972 12.972 0 0 1 315.001 234.603 Q 306.901 234.603 302.551 229.053 Q 298.201 223.503 296.701 214.653 Q 295.201 205.803 295.201 195.903 Z M 565.501 55.803 L 559.501 55.803 Q 558.601 42.603 560.101 30.753 A 45.915 45.915 0 0 1 565.617 13.032 A 30.142 30.142 0 0 1 566.551 11.553 Q 571.501 4.203 580.801 4.203 Q 589.201 4.203 593.101 9.603 Q 597.001 15.003 597.001 24.603 Q 597.001 43.503 589.801 57.003 L 584.401 56.403 A 107.104 107.104 0 0 1 617.213 50.753 A 141.875 141.875 0 0 1 621.001 50.703 A 42.122 42.122 0 0 1 637.953 53.725 A 25.485 25.485 0 0 1 641.551 55.653 A 18.005 18.005 0 0 1 649.193 71.579 A 34.834 34.834 0 0 1 649.201 72.303 Q 649.201 83.403 640.201 89.103 A 40.534 40.534 0 0 1 618.957 94.791 A 62.47 62.47 0 0 1 617.701 94.803 Q 609.601 94.803 600.451 94.053 Q 591.301 93.303 582.601 91.503 L 587.701 85.203 Q 590.401 96.603 592.951 111.153 Q 595.501 125.703 597.601 141.303 Q 599.701 156.903 600.901 171.603 A 342.343 342.343 0 0 1 602.082 195.031 A 239.294 239.294 0 0 1 602.101 198.003 A 83.59 83.59 0 0 1 599.986 217.948 A 43.895 43.895 0 0 1 596.101 228.303 Q 590.101 239.403 578.401 239.403 Q 569.101 239.403 563.851 233.703 Q 558.601 228.003 556.351 219.153 Q 554.101 210.303 553.651 200.703 Q 553.201 191.103 553.201 183.303 Q 553.201 170.103 554.401 153.453 Q 555.601 136.803 557.851 119.103 Q 560.101 101.403 563.101 84.903 L 569.101 90.003 Q 553.801 97.803 531.301 97.803 A 45.977 45.977 0 0 1 515.082 95.31 A 24.385 24.385 0 0 1 510.001 92.703 Q 502.501 87.603 502.501 76.803 Q 502.501 65.103 510.901 58.653 A 33.916 33.916 0 0 1 529.965 52.304 A 57.169 57.169 0 0 1 533.401 52.203 Q 542.701 52.203 550.951 53.253 Q 559.201 54.303 565.501 55.803 Z M 413.701 88.203 L 412.201 87.603 Q 417.301 71.403 427.951 59.703 Q 438.601 48.003 453.601 48.003 Q 471.301 48.003 479.701 62.553 A 65.371 65.371 0 0 1 487.695 89.551 A 99.874 99.874 0 0 1 488.101 98.703 A 172.524 172.524 0 0 1 487.094 118.548 Q 485.523 131.956 481.501 138.903 Q 474.901 150.303 463.801 150.303 Q 455.701 150.303 451.951 143.703 A 23.565 23.565 0 0 1 449.477 134.895 Q 448.783 128.95 449.401 120.303 A 131.176 131.176 0 0 0 449.72 112.128 Q 449.776 100.878 447.301 95.703 Q 444.001 88.803 436.801 88.803 A 15.097 15.097 0 0 0 423.895 97.337 A 34.46 34.46 0 0 0 422.551 99.753 Q 417.001 110.703 417.001 126.603 A 98.538 98.538 0 0 0 418.149 140.155 A 181.342 181.342 0 0 0 418.501 142.503 Q 420.001 152.103 421.801 163.353 Q 423.601 174.603 425.101 185.703 Q 426.601 196.803 426.601 206.103 A 65.339 65.339 0 0 1 425.076 221.369 A 24.631 24.631 0 0 1 421.501 229.803 Q 416.401 237.003 407.101 237.003 Q 396.601 237.003 390.901 230.253 A 36.071 36.071 0 0 1 384.706 218.096 A 85.365 85.365 0 0 1 382.201 208.203 Q 379.801 194.403 377.401 175.503 Q 375.001 156.603 373.501 136.803 A 507.777 507.777 0 0 1 372.054 107.203 A 360.873 360.873 0 0 1 372.001 101.103 A 214.112 214.112 0 0 1 372.892 80.352 Q 373.818 70.947 375.706 64.403 A 43.075 43.075 0 0 1 377.401 59.553 Q 382.801 46.803 392.701 46.803 Q 400.501 46.803 405.001 53.253 Q 409.501 59.703 411.601 69.153 Q 413.701 78.603 413.701 88.203 Z"/></g></svg>
